{
	"asset":{
		"generator":"Khronos glTF Blender I/O v4.2.69",
		"version":"2.0"
	},
	"scene":0,
	"scenes":[
		{
			"name":"Scene",
			"nodes":[
				0
			]
		}
	],
	"nodes":[
		{
			"mesh":0,
			"name":"Object_Planet_0",
			"rotation":[
				0,
				0.9028144478797913,
				0,
				0.43003055453300476
			],
			"translation":[
				-0.029489239677786827,
				-0.12970642745494843,
				0.05863087996840477
			]
		}
	],
	"materials":[
		{
			"doubleSided":true,
			"name":"Planet",
			"pbrMetallicRoughness":{
				"baseColorTexture":{
					"index":0
				},
				"metallicFactor":0,
				"roughnessFactor":0.17888544499874115
			}
		}
	],
	"meshes":[
		{
			"name":"Object_Planet_0",
			"primitives":[
				{
					"attributes":{
						"POSITION":0,
						"NORMAL":1,
						"TEXCOORD_0":2
					},
					"indices":3,
					"material":0
				}
			]
		}
	],
	"textures":[
		{
			"sampler":0,
			"source":0
		}
	],
	"images":[
		{
			"mimeType":"image/png",
			"name":"Planet_baseColor",
			"uri":"Planet_baseColor.png"
		}
	],
	"accessors":[
		{
			"bufferView":0,
			"componentType":5126,
			"count":25291,
			"max":[
				1.0798258781433105,
				1.091413140296936,
				1.051334261894226
			],
			"min":[
				-1.009422779083252,
				-1.1343388557434082,
				-1.0420992374420166
			],
			"type":"VEC3"
		},
		{
			"bufferView":1,
			"componentType":5126,
			"count":25291,
			"type":"VEC3"
		},
		{
			"bufferView":2,
			"componentType":5126,
			"count":25291,
			"type":"VEC2"
		},
		{
			"bufferView":3,
			"componentType":5123,
			"count":27561,
			"type":"SCALAR"
		}
	],
	"bufferViews":[
		{
			"buffer":0,
			"byteLength":303492,
			"byteOffset":0,
			"target":34962
		},
		{
			"buffer":0,
			"byteLength":303492,
			"byteOffset":303492,
			"target":34962
		},
		{
			"buffer":0,
			"byteLength":202328,
			"byteOffset":606984,
			"target":34962
		},
		{
			"buffer":0,
			"byteLength":55122,
			"byteOffset":809312,
			"target":34963
		}
	],
	"samplers":[
		{
			"magFilter":9729,
			"minFilter":9987
		}
	],
	"buffers":[
		{
			"byteLength":864436,
			"uri":"scene.bin"
		}
	]
}
