{
	"asset":{
		"generator":"Khronos glTF Blender I/O v4.2.69",
		"version":"2.0"
	},
	"scene":0,
	"scenes":[
		{
			"name":"Scene",
			"nodes":[
				0
			]
		}
	],
	"nodes":[
		{
			"mesh":0,
			"name":"UFO 2_UFO_0",
			"rotation":[
				0,
				-0.5324481725692749,
				0,
				0.846462607383728
			],
			"translation":[
				0.04466698691248894,
				0.12447153776884079,
				-0.01848294772207737
			]
		}
	],
	"materials":[
		{
			"doubleSided":true,
			"name":"material",
			"pbrMetallicRoughness":{
				"baseColorTexture":{
					"index":0
				},
				"metallicFactor":0,
				"roughnessFactor":0.17888544499874115
			}
		}
	],
	"meshes":[
		{
			"name":"UFO 2_UFO_0",
			"primitives":[
				{
					"attributes":{
						"POSITION":0,
						"NORMAL":1,
						"TEXCOORD_0":2
					},
					"indices":3,
					"material":0
				}
			]
		}
	],
	"textures":[
		{
			"sampler":0,
			"source":0
		}
	],
	"images":[
		{
			"mimeType":"image/png",
			"name":"material_baseColor",
			"uri":"material_baseColor.png"
		}
	],
	"accessors":[
		{
			"bufferView":0,
			"componentType":5126,
			"count":4076,
			"max":[
				0.3614656329154968,
				0.21921437978744507,
				0.36144888401031494
			],
			"min":[
				-0.36155420541763306,
				-0.1725202202796936,
				-0.36157089471817017
			],
			"type":"VEC3"
		},
		{
			"bufferView":1,
			"componentType":5126,
			"count":4076,
			"type":"VEC3"
		},
		{
			"bufferView":2,
			"componentType":5126,
			"count":4076,
			"type":"VEC2"
		},
		{
			"bufferView":3,
			"componentType":5123,
			"count":6162,
			"type":"SCALAR"
		}
	],
	"bufferViews":[
		{
			"buffer":0,
			"byteLength":48912,
			"byteOffset":0,
			"target":34962
		},
		{
			"buffer":0,
			"byteLength":48912,
			"byteOffset":48912,
			"target":34962
		},
		{
			"buffer":0,
			"byteLength":32608,
			"byteOffset":97824,
			"target":34962
		},
		{
			"buffer":0,
			"byteLength":12324,
			"byteOffset":130432,
			"target":34963
		}
	],
	"samplers":[
		{
			"magFilter":9729,
			"minFilter":9987
		}
	],
	"buffers":[
		{
			"byteLength":142756,
			"uri":"scene.bin"
		}
	]
}
